<?xml version="1.0" standalone="no"?><!DOCTYPE svg PUBLIC "-//W3C//DTD SVG 1.1//EN" "http://www.w3.org/Graphics/SVG/1.1/DTD/svg11.dtd"><svg class="icon" height="512" viewBox="0 0 1024 1024" version="1.1" xmlns="http://www.w3.org/2000/svg"><path d="M264.325273 697.031431l53.471401 0c-0.004794-0.58391-0.022052-1.164944-0.022052-1.750772 0-107.892015 87.46379-195.354846 195.354846-195.354846s195.354846 87.46379 195.354846 195.354846c0 0.584869-0.017258 1.166861-0.022052 1.750772l53.471401 0c0.003835-0.58391 0.022052-1.164944 0.022052-1.750772 0-137.423101-111.403146-248.826247-248.826247-248.826247S264.303221 557.857558 264.303221 695.280659C264.303221 695.866487 264.321438 696.446562 264.325273 697.031431zM145.44827 772.209139l727.419685 0 0 57.177169-727.419685 0 0-57.177169ZM494.8643 194.613693l49.765633 0 0 203.296599-49.765633 0 0-203.296599ZM170.051704 286.730593l143.751025 143.751025-35.189279 35.189279-143.751025-143.751025 35.189279-35.189279ZM816.73588 609.134262l203.296599 0 0 49.765633-203.296599 0 0-49.765633ZM5.165064 608.061363l203.296599 0 0 49.765633-203.296599 0 0-49.765633ZM868.909828 287.785818l35.189279 35.189279-143.751025 143.751025-35.189279-35.189279 143.751025-143.751025Z" /></svg>